<mxfile host="Electron" modified="2023-11-05T11:42:22.086Z" agent="Mozilla/5.0 (Windows NT 10.0; Win64; x64) AppleWebKit/537.36 (KHTML, like Gecko) draw.io/22.0.3 Chrome/114.0.5735.289 Electron/25.8.4 Safari/537.36" etag="bM0eH4s4NBiPEgyV7nZr" version="22.0.3" type="device">
  <diagram name="Seite-1" id="dMClOozi9FDAlUsFPm3h">
    <mxGraphModel dx="780" dy="504" grid="1" gridSize="10" guides="1" tooltips="1" connect="1" arrows="1" fold="1" page="1" pageScale="1" pageWidth="827" pageHeight="1169" background="#4D4D4D" math="0" shadow="0">
      <root>
        <mxCell id="0" />
        <mxCell id="1" parent="0" />
        <mxCell id="wKOV665bJu43ZV_5RckP-1" value="&lt;font style=&quot;font-size: 18px;&quot;&gt;&amp;nbsp; Simulink Model&lt;/font&gt;" style="rounded=1;whiteSpace=wrap;html=1;align=center;verticalAlign=top;arcSize=2;fontStyle=1;labelBackgroundColor=none;fontColor=#000000;strokeColor=#000000;" parent="1" vertex="1">
          <mxGeometry x="190" y="320" width="520" height="410" as="geometry" />
        </mxCell>
        <mxCell id="wKOV665bJu43ZV_5RckP-3" value="Environment&lt;br style=&quot;font-size: 16px;&quot;&gt;" style="rounded=1;whiteSpace=wrap;html=1;align=center;verticalAlign=middle;arcSize=2;fontStyle=1;glass=0;shadow=1;fontSize=16;fontColor=#000000;strokeColor=#000000;fillColor=#99FF99;" parent="1" vertex="1">
          <mxGeometry x="570" y="570" width="110" height="59" as="geometry" />
        </mxCell>
        <mxCell id="wKOV665bJu43ZV_5RckP-4" value="Hexapod Controller" style="rounded=1;whiteSpace=wrap;html=1;align=center;verticalAlign=middle;arcSize=2;fontStyle=1;shadow=1;fontSize=16;fillColor=#FFFF88;fontColor=#000000;strokeColor=#000000;" parent="1" vertex="1">
          <mxGeometry x="230" y="370" width="180" height="130" as="geometry" />
        </mxCell>
        <mxCell id="wKOV665bJu43ZV_5RckP-13" value="Physical Iteraction" style="endArrow=classic;startArrow=classic;html=1;rounded=0;exitX=0.998;exitY=0.623;exitDx=0;exitDy=0;entryX=0.5;entryY=1;entryDx=0;entryDy=0;verticalAlign=middle;align=center;exitPerimeter=0;fontColor=#000000;" parent="1" source="wKOV665bJu43ZV_5RckP-33" target="wKOV665bJu43ZV_5RckP-3" edge="1">
          <mxGeometry x="-0.0229" width="50" height="50" relative="1" as="geometry">
            <mxPoint x="370" y="660" as="sourcePoint" />
            <mxPoint x="440" y="620" as="targetPoint" />
            <Array as="points">
              <mxPoint x="495" y="660" />
              <mxPoint x="625" y="660" />
            </Array>
            <mxPoint as="offset" />
          </mxGeometry>
        </mxCell>
        <mxCell id="wKOV665bJu43ZV_5RckP-16" value="Torque Inputs" style="endArrow=classic;html=1;rounded=0;entryX=0.139;entryY=0.008;entryDx=0;entryDy=0;exitX=0.144;exitY=1.002;exitDx=0;exitDy=0;align=center;entryPerimeter=0;exitPerimeter=0;fontColor=#000000;" parent="1" source="wKOV665bJu43ZV_5RckP-4" target="wKOV665bJu43ZV_5RckP-33" edge="1">
          <mxGeometry width="50" height="50" relative="1" as="geometry">
            <mxPoint x="380" y="470" as="sourcePoint" />
            <mxPoint x="265" y="610" as="targetPoint" />
          </mxGeometry>
        </mxCell>
        <mxCell id="wKOV665bJu43ZV_5RckP-17" value="Sensory Feedback&lt;br&gt;" style="endArrow=classic;html=1;rounded=0;entryX=0.867;entryY=1;entryDx=0;entryDy=0;exitX=0.867;exitY=0.003;exitDx=0;exitDy=0;align=center;entryPerimeter=0;exitPerimeter=0;fontColor=#000000;" parent="1" source="wKOV665bJu43ZV_5RckP-33" target="wKOV665bJu43ZV_5RckP-4" edge="1">
          <mxGeometry width="50" height="50" relative="1" as="geometry">
            <mxPoint x="335" y="610" as="sourcePoint" />
            <mxPoint x="430" y="420" as="targetPoint" />
          </mxGeometry>
        </mxCell>
        <mxCell id="wKOV665bJu43ZV_5RckP-33" value="Hexapod Model" style="rounded=1;whiteSpace=wrap;html=1;align=center;verticalAlign=middle;arcSize=2;fontStyle=1;shadow=1;fontSize=16;fillColor=#CCCCCC;fontColor=#000000;strokeColor=#000000;" parent="1" vertex="1">
          <mxGeometry x="230" y="579" width="180" height="130" as="geometry" />
        </mxCell>
        <mxCell id="wKOV665bJu43ZV_5RckP-38" value="RL Observations" style="endArrow=classic;html=1;rounded=0;entryX=1;entryY=0.5;entryDx=0;entryDy=0;fontColor=#000000;" parent="1" target="wKOV665bJu43ZV_5RckP-4" edge="1">
          <mxGeometry x="-0.2451" width="50" height="50" relative="1" as="geometry">
            <mxPoint x="490" y="600" as="sourcePoint" />
            <mxPoint x="470" y="480" as="targetPoint" />
            <Array as="points">
              <mxPoint x="490" y="435" />
            </Array>
            <mxPoint as="offset" />
          </mxGeometry>
        </mxCell>
        <mxCell id="wKOV665bJu43ZV_5RckP-39" value="" style="endArrow=classic;html=1;rounded=0;exitX=1.006;exitY=0.164;exitDx=0;exitDy=0;exitPerimeter=0;fontColor=#000000;" parent="1" source="wKOV665bJu43ZV_5RckP-33" edge="1">
          <mxGeometry width="50" height="50" relative="1" as="geometry">
            <mxPoint x="414" y="610" as="sourcePoint" />
            <mxPoint x="490" y="600" as="targetPoint" />
            <Array as="points">
              <mxPoint x="440" y="600" />
            </Array>
          </mxGeometry>
        </mxCell>
        <mxCell id="wKOV665bJu43ZV_5RckP-42" value="" style="endArrow=classic;html=1;rounded=0;exitX=0;exitY=0.5;exitDx=0;exitDy=0;fontColor=#000000;" parent="1" source="wKOV665bJu43ZV_5RckP-3" edge="1">
          <mxGeometry width="50" height="50" relative="1" as="geometry">
            <mxPoint x="420" y="530" as="sourcePoint" />
            <mxPoint x="490" y="600" as="targetPoint" />
          </mxGeometry>
        </mxCell>
      </root>
    </mxGraphModel>
  </diagram>
</mxfile>
